<svg width="136" height="48" viewBox="0 0 136 48" fill="none" xmlns="http://www.w3.org/2000/svg">
<mask id="mask0_2278_12031" style="mask-type:alpha" maskUnits="userSpaceOnUse" x="0" y="0" width="136" height="48">
<rect width="136" height="48" fill="#D9D9D9"/>
</mask>
<g mask="url(#mask0_2278_12031)">
<path d="M126.999 23.6112C126.999 25.9574 126.602 27.8461 125.807 29.2773C125.012 30.6968 123.931 31.7291 122.563 32.3743C121.207 33.0078 119.676 33.3246 117.969 33.3246C115.304 33.3246 113.253 32.6148 111.815 31.1954C110.389 29.7642 109.676 27.3651 109.676 23.9983C109.676 20.9717 110.465 18.6782 112.043 17.118C113.633 15.546 115.801 14.76 118.548 14.76C121.353 14.76 123.463 15.4521 124.878 16.8364C126.292 18.2207 126.999 20.4789 126.999 23.6112ZM114.901 23.9103C114.901 27.7464 116.052 29.6644 118.355 29.6644C119.524 29.6644 120.389 29.2304 120.95 28.3623C121.511 27.4824 121.792 26.0454 121.792 24.0511C121.792 20.3088 120.617 18.4377 118.267 18.4377C117.122 18.4377 116.274 18.8542 115.725 19.6871C115.176 20.5083 114.901 21.916 114.901 23.9103Z" fill="white"/>
<path d="M99 17.8218L99.3507 15.0415C100.707 14.7248 101.957 14.5664 103.103 14.5664C103.676 14.5664 104.202 14.5781 104.681 14.6016C105.16 14.6133 105.599 14.6427 105.996 14.6896V29.0661C106.931 29.4181 107.592 29.8228 107.977 30.2803L107.627 33.0606H99.3507L99 30.2803C99.3273 29.8228 99.9878 29.4181 100.981 29.0661V19.036C100.128 18.7544 99.4676 18.3497 99 17.8218Z" fill="white"/>
<path d="M87.3711 10.2554L87.7218 7.47511C89.0777 7.15837 90.3285 7 91.4741 7C92.6196 7 93.584 7.03519 94.3672 7.10558V29.0663C95.3023 29.4182 95.9628 29.823 96.3485 30.2805L95.9979 33.0608H87.7218L87.3711 30.2805C87.6984 29.823 88.3588 29.4182 89.3524 29.0663V11.4696C88.4991 11.188 87.8387 10.7833 87.3711 10.2554Z" fill="white"/>
<path d="M71.0276 37.2486H71.5361C71.9686 37.2486 72.4303 36.8439 72.9213 36.0344C73.4122 35.225 73.7512 34.2689 73.9382 33.1661L68.0468 19.1943C66.8778 18.8072 66.0888 18.3497 65.6797 17.8218L66.0304 15.0415H74.3065L74.6571 17.8218C74.3298 18.1972 73.8038 18.5433 73.0791 18.86L75.0604 24.2974C75.4812 25.447 75.7793 26.5674 75.9547 27.6584L76.0599 28.1511H76.5683C76.7671 26.9428 77.1002 25.6817 77.5678 24.3678L79.4615 19.036C78.5965 18.7075 77.9769 18.3028 77.6029 17.8218L77.9535 15.0415H85.8614L86.2121 17.8218C85.7796 18.3732 84.9905 18.8424 83.845 19.2295L77.9185 33.2717C76.7963 35.9582 75.9371 37.6768 75.341 38.4276C74.2889 39.847 72.8219 40.5568 70.9399 40.5568C69.0579 40.5568 67.626 40.0641 66.6441 39.0786C66.6324 38.9613 66.6207 38.8382 66.609 38.7091C66.609 38.5918 66.609 38.4745 66.609 38.3572C66.609 37.055 66.8837 35.8057 67.4331 34.6091H70.4139C70.7646 35.2426 70.9691 36.1224 71.0276 37.2486Z" fill="white"/>
<path d="M57.8868 21.3813C57.6644 21.3813 57.277 21.464 57.277 21.464C57.1197 21.6349 56.6984 22.0511 56.6984 22.2929V31.2997H40.4986V22.2929C40.4986 22.0427 40.0773 21.6351 39.92 21.4641C39.92 21.4641 39.4125 21.3813 39.1901 21.3813C38.9677 21.3813 38.7544 21.4774 38.5972 21.6483C38.4399 21.8193 38.3516 22.0511 38.3516 22.2929V32.4544C38.3516 32.6962 38.4399 32.928 38.5972 33.099C38.7544 33.2699 38.9677 33.3659 39.1901 33.3659H57.8868C58.1092 33.3659 58.3225 33.2699 58.4797 33.099C58.637 32.928 58.7254 32.6962 58.7254 32.4544V22.2929C58.7254 22.0511 58.637 21.8193 58.4797 21.6483C58.3225 21.4774 58.1092 21.3813 57.8868 21.3813Z" fill="white"/>
<path d="M63.2673 22.281L49.1749 8.45509C49.0073 8.29063 48.78 8.19824 48.5429 8.19824C48.3059 8.19824 48.0785 8.29063 47.9109 8.45509L33.8204 22.281C33.6954 22.4037 33.6102 22.56 33.5758 22.7301C33.5413 22.9002 33.559 23.0766 33.6267 23.2368C33.6943 23.3971 33.8089 23.5341 33.9559 23.6304C34.1029 23.7268 34.2757 23.7782 34.4525 23.7782C34.6813 23.7782 34.91 23.6926 35.0846 23.5213L48.6013 12.207L62.0034 23.5213C62.1718 23.6818 62.3979 23.7709 62.6327 23.7692C62.8675 23.7676 63.0923 23.6753 63.2583 23.5124C63.4243 23.3494 63.5184 23.1289 63.52 22.8985C63.5217 22.6681 63.4309 22.4463 63.2673 22.281Z" fill="white"/>
<path d="M23.7701 10.5015H26.3827V15.0414H31.5202V18.0681H26.3827V27.1832C26.3827 27.9692 26.4938 28.5264 26.7159 28.8549C26.8795 29.1129 27.1835 29.2772 27.6276 29.3476C28.0835 29.4062 28.6037 29.3886 29.1882 29.2948C29.7726 29.2009 30.3337 29.0484 30.8715 28.8373L31.9586 31.6527C30.1116 32.5912 28.2238 33.0605 26.2951 33.0605C24.3663 33.0605 23.0629 32.6499 22.385 31.8287C21.707 30.9958 21.368 29.7875 21.368 28.2038V18.0681H19.7548L19.3516 15.8685C19.7373 15.411 20.5263 14.9534 21.7187 14.4959C22.0226 12.5134 22.7064 11.1819 23.7701 10.5015Z" fill="white"/>
<path d="M11.064 12.1207C10.2457 11.9095 9.39826 11.8039 8.52156 11.8039C7.63317 11.8039 6.92011 12.021 6.3824 12.455C5.833 12.9008 5.5583 13.5284 5.5583 14.3379C5.5583 15.1473 5.76287 15.7808 6.17199 16.2383C6.58112 16.6841 7.38185 17.0771 8.57416 17.4173L11.7829 18.3499C13.5012 18.8544 14.8689 19.6462 15.8859 20.7255C16.9028 21.793 17.4113 23.3591 17.4113 25.4238C17.4113 27.0544 17.0081 28.4622 16.2015 29.647C15.3949 30.8319 14.2961 31.7469 12.9051 32.3921C11.5257 33.0256 9.9652 33.3423 8.22348 33.3423C6.78569 33.3423 5.30698 33.1605 3.78736 32.7968C2.26774 32.4214 1.00529 31.8994 0 31.2307V30.3861C0 30.1163 0.0350682 29.7057 0.105204 29.1543C0.18703 28.603 0.298079 28.0281 0.438352 27.4298C0.590314 26.8198 0.765655 26.3036 0.964374 25.8813H4.38352C4.76927 26.6438 4.99721 27.641 5.06735 28.8728C5.87392 29.2364 6.84998 29.4183 7.99554 29.4183C9.10603 29.4183 10.0178 29.1543 10.7309 28.6264C11.4556 28.0985 11.818 27.3419 11.818 26.3564C11.818 25.8872 11.7829 25.5059 11.7128 25.2126C11.6426 24.9076 11.4205 24.585 11.0465 24.2448C10.6724 23.9046 10.1405 23.6231 9.45087 23.4002L5.75118 22.3268C1.9872 21.2592 0.105204 18.8544 0.105204 15.1121C0.105204 13.6575 0.461731 12.3905 1.17478 11.3112C1.89952 10.232 2.90481 9.39318 4.19064 8.79489C5.47648 8.19661 6.97272 7.89746 8.67937 7.89746C11.2393 7.89746 13.735 8.47815 16.1664 9.63954V10.4666C16.1664 10.7364 16.1255 11.1529 16.0437 11.716C15.9735 12.2673 15.8625 12.8421 15.7105 13.4404C15.5703 14.0387 15.3949 14.549 15.1845 14.9713H11.7829C11.3738 14.3848 11.1341 13.4346 11.064 12.1207Z" fill="white"/>
<circle cx="103.5" cy="9.5" r="2.5" fill="white"/>
</g>
</svg>
