<svg width="20" height="20" viewBox="0 0 20 20" fill="none" xmlns="http://www.w3.org/2000/svg">
<g clip-path="url(#clip0_2448_17381)">
<rect width="20" height="20" rx="10" fill="white"/>
<rect width="80" height="80" fill="#171717"/>
<rect width="80" height="80" fill="#9D764E"/>
<path d="M14.9966 9.28564C14.8779 9.28564 14.671 9.32505 14.671 9.32505C14.587 9.40655 14.362 9.60499 14.362 9.72026V14.0148H5.711V9.72026C5.711 9.60097 5.48602 9.40662 5.40204 9.32511C5.40204 9.32511 5.13103 9.28564 5.01226 9.28564C4.89349 9.28564 4.77959 9.33143 4.69561 9.41294C4.61163 9.49445 4.56445 9.60499 4.56445 9.72026V14.5653C4.56445 14.6806 4.61163 14.7911 4.69561 14.8726C4.77959 14.9541 4.89349 14.9999 5.01226 14.9999H14.9966C15.1154 14.9999 15.2293 14.9541 15.3133 14.8726C15.3973 14.7911 15.4445 14.6806 15.4445 14.5653V9.72026C15.4445 9.60499 15.3973 9.49445 15.3133 9.41294C15.2293 9.33143 15.1154 9.28564 14.9966 9.28564Z" fill="white"/>
<path d="M17.865 9.71473L10.3394 3.12246C10.2499 3.04405 10.1285 3 10.0019 3C9.87534 3 9.75394 3.04405 9.66442 3.12246L2.13979 9.71473C2.07303 9.77321 2.02758 9.84772 2.00917 9.92884C1.99075 10.01 2.00021 10.094 2.03634 10.1705C2.07248 10.2469 2.13366 10.3122 2.21216 10.3581C2.29066 10.4041 2.38294 10.4286 2.47735 10.4286C2.59954 10.4286 2.72167 10.3878 2.81491 10.3061L10.0331 4.91137L17.1901 10.3061C17.28 10.3826 17.4007 10.4251 17.5261 10.4243C17.6515 10.4235 17.7715 10.3795 17.8602 10.3018C17.9489 10.2241 17.9991 10.119 18 10.0091C18.0009 9.89927 17.9524 9.79352 17.865 9.71473Z" fill="white"/>
<path d="M10.78 8.99665C10.5995 8.95397 10.4126 8.93263 10.2192 8.93263C10.0233 8.93263 9.86605 8.9765 9.74746 9.06423C9.62629 9.15433 9.5657 9.28118 9.5657 9.44479C9.5657 9.60839 9.61082 9.73643 9.70105 9.8289C9.79128 9.919 9.96788 9.99843 10.2308 10.0672L10.9385 10.2557C11.3175 10.3576 11.6191 10.5177 11.8434 10.7358C12.0677 10.9516 12.1798 11.2681 12.1798 11.6854C12.1798 12.015 12.0909 12.2996 11.913 12.539C11.7351 12.7785 11.4928 12.9635 11.186 13.0939C10.8818 13.2219 10.5376 13.2859 10.1535 13.2859C9.8364 13.2859 9.51028 13.2492 9.17513 13.1757C8.83998 13.0998 8.56156 12.9943 8.33984 12.8591V12.6884C8.33984 12.6339 8.34758 12.5509 8.36305 12.4395C8.38109 12.328 8.40558 12.2118 8.43652 12.0909C8.47004 11.9676 8.50871 11.8633 8.55253 11.7779H9.30661C9.39169 11.932 9.44196 12.1336 9.45743 12.3825C9.63531 12.456 9.85058 12.4928 10.1032 12.4928C10.3481 12.4928 10.5492 12.4395 10.7065 12.3328C10.8663 12.2261 10.9462 12.0731 10.9462 11.874C10.9462 11.7791 10.9385 11.702 10.923 11.6428C10.9076 11.5811 10.8586 11.5159 10.7761 11.4472C10.6936 11.3784 10.5763 11.3215 10.4242 11.2764L9.60824 11.0595C8.77811 10.8437 8.36305 10.3576 8.36305 9.60128C8.36305 9.30726 8.44168 9.05119 8.59894 8.83305C8.75878 8.61491 8.98049 8.44538 9.26407 8.32445C9.54766 8.20353 9.87765 8.14307 10.254 8.14307C10.8186 8.14307 11.369 8.26043 11.9053 8.49517V8.66233C11.9053 8.71687 11.8963 8.80104 11.8782 8.91485C11.8627 9.02629 11.8383 9.14247 11.8047 9.2634C11.7738 9.38432 11.7351 9.48746 11.6887 9.57282H10.9385C10.8483 9.45427 10.7954 9.26221 10.78 8.99665Z" fill="white"/>
</g>
<defs>
<clipPath id="clip0_2448_17381">
<rect width="20" height="20" rx="10" fill="white"/>
</clipPath>
</defs>
</svg>
