<svg width="16" height="16" viewBox="0 0 16 16" fill="none" xmlns="http://www.w3.org/2000/svg">
<rect width="16" height="16" rx="5" fill="white"/>
<mask id="mask0_1303_7296" style="mask-type:alpha" maskUnits="userSpaceOnUse" x="4" y="4" width="8" height="8">
<rect x="4" y="4" width="8" height="8" fill="#5956E9"/>
</mask>
<g mask="url(#mask0_1303_7296)">
<path d="M10.7565 5.22317C10.8947 5.07845 11.0787 4.99844 11.2695 5.00002C11.4604 5.00161 11.6433 5.08467 11.7795 5.23169C11.9157 5.3787 11.9947 5.57816 11.9997 5.78798C12.0048 5.9978 11.9355 6.20157 11.8065 6.3563L7.89085 11.7413C7.82352 11.8211 7.74226 11.8851 7.65192 11.9295C7.56158 11.9739 7.46403 11.9978 7.36509 11.9999C7.26614 12.0019 7.16785 11.9819 7.07608 11.9412C6.98431 11.9005 6.90094 11.8399 6.83097 11.7629L4.23426 8.90744C4.16195 8.83334 4.10395 8.74398 4.06372 8.6447C4.02349 8.54542 4.00186 8.43824 4.00011 8.32957C3.99837 8.22089 4.01655 8.11295 4.05357 8.01217C4.09059 7.91138 4.14569 7.81984 4.21558 7.74298C4.28547 7.66612 4.36872 7.60553 4.46037 7.56483C4.55202 7.52412 4.65019 7.50413 4.74901 7.50604C4.84784 7.50796 4.9453 7.53175 5.03559 7.57599C5.12588 7.62022 5.20713 7.684 5.27452 7.76352L7.32951 10.0222L10.7378 5.24692C10.744 5.23861 10.7495 5.23068 10.7565 5.22317Z" fill="#3655FF"/>
</g>
</svg>
