<svg width="158" height="60" viewBox="0 0 158 60" fill="none" xmlns="http://www.w3.org/2000/svg">
<mask id="mask0_2422_3416" style="mask-type:alpha" maskUnits="userSpaceOnUse" x="0" y="0" width="158" height="60">
<rect width="158" height="60" fill="#D9D9D9"/>
</mask>
<g mask="url(#mask0_2422_3416)">
<mask id="mask1_2422_3416" style="mask-type:alpha" maskUnits="userSpaceOnUse" x="2" y="5" width="168" height="59">
<rect x="2" y="5" width="167.167" height="59" fill="#D9D9D9"/>
</mask>
<g mask="url(#mask1_2422_3416)">
<path d="M158.102 34.0216C158.102 36.9055 157.614 39.2271 156.637 40.9863C155.66 42.731 154.331 44 152.65 44.793C150.983 45.5717 149.101 45.961 147.003 45.961C143.727 45.961 141.205 45.0886 139.438 43.3439C137.685 41.5847 136.809 38.6359 136.809 34.4975C136.809 30.7772 137.778 27.9582 139.718 26.0404C141.672 24.1082 144.338 23.1421 147.714 23.1421C151.162 23.1421 153.756 23.9928 155.494 25.6943C157.233 27.3959 158.102 30.1716 158.102 34.0216ZM143.231 34.3893C143.231 39.1045 144.646 41.4621 147.477 41.4621C148.914 41.4621 149.977 40.9286 150.667 39.8616C151.356 38.7801 151.701 37.0137 151.701 34.5624C151.701 29.9625 150.257 27.6626 147.369 27.6626C145.961 27.6626 144.919 28.1745 144.244 29.1983C143.569 30.2077 143.231 31.938 143.231 34.3893Z" fill="white"/>
<path d="M123.688 26.9057L124.119 23.4883C125.785 23.099 127.323 22.9043 128.731 22.9043C129.435 22.9043 130.081 22.9187 130.67 22.9476C131.26 22.962 131.798 22.998 132.287 23.0557V40.7269C133.436 41.1594 134.248 41.6569 134.722 42.2193L134.291 45.6367H124.119L123.688 42.2193C124.09 41.6569 124.902 41.1594 126.123 40.7269V28.3981C125.074 28.0521 124.262 27.5546 123.688 26.9057Z" fill="white"/>
<path d="M109.391 17.6054L109.822 14.188C111.488 13.7987 113.026 13.604 114.434 13.604C115.842 13.604 117.027 13.6473 117.99 13.7338V40.7272C119.139 41.1598 119.951 41.6572 120.425 42.2196L119.994 45.637H109.822L109.391 42.2196C109.793 41.6572 110.605 41.1598 111.826 40.7272V19.0979C110.777 18.7518 109.965 18.2543 109.391 17.6054Z" fill="white"/>
<path d="M89.3039 50.7845H89.9289C90.4606 50.7845 91.0281 50.287 91.6316 49.2921C92.235 48.2971 92.6517 47.1219 92.8816 45.7665L85.64 28.5928C84.2032 28.117 83.2334 27.5546 82.7305 26.9057L83.1615 23.4883H93.3342L93.7652 26.9057C93.3629 27.3671 92.7164 27.7925 91.8255 28.1818L94.261 34.8653C94.7782 36.2784 95.1446 37.6555 95.3601 38.9965L95.4894 39.6021H96.1144C96.3587 38.1169 96.7682 36.5668 97.3429 34.9518L99.6706 28.3981C98.6073 27.9944 97.8458 27.4969 97.386 26.9057L97.8171 23.4883H107.537L107.968 26.9057C107.437 27.5834 106.467 28.1602 105.059 28.6361L97.774 45.8963C96.3946 49.1983 95.3386 51.3108 94.6058 52.2336C93.3126 53.9784 91.5094 54.8508 89.1962 54.8508C86.8829 54.8508 85.1228 54.2452 83.9158 53.0339C83.9015 52.8897 83.8871 52.7383 83.8727 52.5797C83.8727 52.4355 83.8727 52.2913 83.8727 52.1471C83.8727 50.5466 84.2104 49.0109 84.8857 47.5401H88.5496C88.9806 48.3187 89.2321 49.4002 89.3039 50.7845Z" fill="white"/>
<path d="M73.1527 31.2812C72.8793 31.2812 72.4031 31.3828 72.4031 31.3828C72.2098 31.5929 71.692 32.1045 71.692 32.4017V43.4726H51.7797V32.4017C51.7797 32.0941 51.2618 31.5931 51.0685 31.383C51.0685 31.383 50.4447 31.2812 50.1714 31.2812C49.898 31.2812 49.6358 31.3993 49.4425 31.6094C49.2492 31.8195 49.1406 32.1045 49.1406 32.4017V44.8919C49.1406 45.189 49.2492 45.474 49.4425 45.6841C49.6358 45.8943 49.898 46.0123 50.1714 46.0123H73.1527C73.426 46.0123 73.6882 45.8943 73.8815 45.6841C74.0748 45.474 74.1834 45.189 74.1834 44.8919V32.4017C74.1834 32.1045 74.0748 31.8195 73.8815 31.6094C73.6882 31.3993 73.426 31.2812 73.1527 31.2812Z" fill="white"/>
<path d="M79.763 32.3873L62.4412 15.3929C62.2351 15.1907 61.9557 15.0771 61.6643 15.0771C61.373 15.0771 61.0935 15.1907 60.8875 15.3929L43.5678 32.3873C43.4142 32.538 43.3096 32.7301 43.2672 32.9392C43.2248 33.1484 43.2466 33.3651 43.3297 33.5621C43.4129 33.7591 43.5537 33.9274 43.7344 34.0459C43.9151 34.1643 44.1275 34.2275 44.3448 34.2275C44.6261 34.2275 44.9072 34.1223 45.1218 33.9117L61.7361 20.0045L78.2095 33.9117C78.4165 34.1091 78.6944 34.2186 78.983 34.2165C79.2717 34.2144 79.5479 34.101 79.752 33.9007C79.9561 33.7005 80.0716 33.4294 80.0737 33.1462C80.0758 32.863 79.9642 32.5904 79.763 32.3873Z" fill="white"/>
<path d="M31.2163 17.9082H34.4276V23.4886H40.7425V27.2088H34.4276V38.4128C34.4276 39.3789 34.5641 40.0638 34.8371 40.4676C35.0383 40.7848 35.4119 40.9867 35.9578 41.0732C36.5182 41.1453 37.1576 41.1237 37.876 41.0083C38.5944 40.893 39.2841 40.7055 39.945 40.446L41.2813 43.9066C39.0111 45.0602 36.6906 45.637 34.3199 45.637C31.9491 45.637 30.3471 45.1323 29.5137 44.1229C28.6803 43.0991 28.2637 41.6139 28.2637 39.6673V27.2088H26.2809L25.7852 24.5051C26.2593 23.9428 27.2292 23.3804 28.6947 22.8181C29.0683 20.3812 29.9088 18.7445 31.2163 17.9082Z" fill="white"/>
<path d="M15.5995 19.8986C14.5937 19.639 13.552 19.5092 12.4744 19.5092C11.3824 19.5092 10.506 19.776 9.84504 20.3095C9.16973 20.8575 8.83208 21.6289 8.83208 22.6239C8.83208 23.6188 9.08352 24.3975 9.58641 24.9598C10.0893 25.5078 11.0735 25.9908 12.5391 26.409L16.4831 27.5553C18.5953 28.1754 20.2764 29.1487 21.5264 30.4753C22.7764 31.7875 23.4014 33.7125 23.4014 36.2503C23.4014 38.2546 22.9057 39.985 21.9143 41.4414C20.9229 42.8977 19.5723 44.0225 17.8625 44.8155C16.167 45.5942 14.2489 45.9835 12.108 45.9835C10.3407 45.9835 8.52316 45.76 6.6553 45.313C4.78743 44.8516 3.23567 44.2099 2 43.388V42.3498C2 42.0181 2.0431 41.5135 2.12931 40.8357C2.22989 40.158 2.36639 39.4515 2.53881 38.7161C2.72559 37.9662 2.94112 37.3318 3.18538 36.8127H7.38808C7.86223 37.75 8.14241 38.9756 8.22862 40.4897C9.22002 40.9367 10.4198 41.1602 11.8279 41.1602C13.1928 41.1602 14.3135 40.8357 15.19 40.1869C16.0808 39.538 16.5263 38.6079 16.5263 37.3967C16.5263 36.8199 16.4831 36.3513 16.3969 35.9908C16.3107 35.6159 16.0377 35.2193 15.578 34.8012C15.1182 34.383 14.4644 34.0369 13.6167 33.7629L9.06916 32.4436C4.44259 31.1314 2.12931 28.1754 2.12931 23.5755C2.12931 21.7875 2.56754 20.2302 3.444 18.9036C4.33483 17.577 5.5705 16.546 7.151 15.8106C8.7315 15.0752 10.5706 14.7075 12.6684 14.7075C15.815 14.7075 18.8826 15.4213 21.8712 16.8488V17.8654C21.8712 18.197 21.8209 18.7089 21.7204 19.4011C21.6341 20.0788 21.4977 20.7854 21.3109 21.5208C21.1384 22.2562 20.9229 22.8834 20.6643 23.4025H16.4831C15.9803 22.6815 15.6857 21.5135 15.5995 19.8986Z" fill="white"/>
<circle cx="129.217" cy="16.6769" r="3.07292" fill="white"/>
</g>
</g>
</svg>
